<svg width="20" height="20" viewBox="0 0 20 20" fill="none" xmlns="http://www.w3.org/2000/svg">
<path d="M9.16634 15C7.54134 15 6.16301 14.4342 5.03134 13.3025C3.89967 12.1708 3.33356 10.7922 3.33301 9.16667V4.16667C3.33301 3.70833 3.49634 3.31611 3.82301 2.99C4.14967 2.66389 4.5419 2.50056 4.99967 2.5H15.4163C16.2219 2.5 16.9094 2.78472 17.4788 3.35417C18.0483 3.92361 18.333 4.61111 18.333 5.41667C18.333 6.22222 18.0483 6.90972 17.4788 7.47917C16.9094 8.04861 16.2219 8.33333 15.4163 8.33333H14.9997V9.16667C14.9997 10.7917 14.4338 12.1703 13.3022 13.3025C12.1705 14.4347 10.7919 15.0006 9.16634 15ZM4.99967 6.66667H13.333V4.16667H4.99967V6.66667ZM14.9997 6.66667H15.4163C15.7636 6.66667 16.0588 6.54528 16.3022 6.3025C16.5455 6.05972 16.6669 5.76444 16.6663 5.41667C16.6658 5.06889 16.5444 4.77389 16.3022 4.53167C16.06 4.28944 15.7647 4.16778 15.4163 4.16667H14.9997V6.66667ZM3.33301 17.5V15.8333H16.6663V17.5H3.33301Z" fill="white"/>
</svg>
