<svg width="20" height="20" viewBox="0 0 20 20" fill="none" xmlns="http://www.w3.org/2000/svg">
<path d="M13.1667 1.66699H5.66667C5.22464 1.66699 4.80072 1.84259 4.48816 2.15515C4.17559 2.46771 4 2.89163 4 3.33366V16.667C4 17.109 4.17559 17.5329 4.48816 17.8455C4.80072 18.1581 5.22464 18.3337 5.66667 18.3337H15.6667C16.1087 18.3337 16.5326 18.1581 16.8452 17.8455C17.1577 17.5329 17.3333 17.109 17.3333 16.667V5.83366L13.1667 1.66699Z" stroke="white" stroke-width="1.66667" stroke-linecap="round" stroke-linejoin="round"/>
<path d="M11.6665 1.66699V5.00033C11.6665 5.44235 11.8421 5.86628 12.1547 6.17884C12.4672 6.4914 12.8911 6.66699 13.3332 6.66699H16.6665" stroke="white" stroke-width="1.66667" stroke-linecap="round" stroke-linejoin="round"/>
<path d="M8.33317 7.5H6.6665" stroke="white" stroke-width="1.66667" stroke-linecap="round" stroke-linejoin="round"/>
<path d="M13.3332 10.833H6.6665" stroke="white" stroke-width="1.66667" stroke-linecap="round" stroke-linejoin="round"/>
<path d="M13.3332 14.167H6.6665" stroke="white" stroke-width="1.66667" stroke-linecap="round" stroke-linejoin="round"/>
</svg>
