<svg width="38" height="36" viewBox="0 0 38 36" fill="none" xmlns="http://www.w3.org/2000/svg">
<path d="M18.7685 25.5036C18.7685 25.5036 9.08691 13.86 9.08691 8.92477C9.08691 7.75113 9.339 6.59015 9.82179 5.50938C10.3046 4.42861 11.0224 3.44073 11.9196 2.61326C12.8169 1.7858 13.885 1.12721 15.0599 0.679702C16.2349 0.232196 17.4953 0 18.7642 0C20.0332 0 21.2936 0.232196 22.4685 0.679702C23.6435 1.12721 24.7116 1.7858 25.6089 2.61326C26.5061 3.44073 27.2196 4.42439 27.7067 5.50938C28.1938 6.59437 28.4416 7.75535 28.4416 8.92477C28.4416 13.86 18.76 25.5036 18.76 25.5036H18.7685ZM18.7685 11.4747C19.5034 11.4747 20.2041 11.2045 20.7253 10.7275C21.2423 10.2504 21.5371 9.60025 21.5371 8.92477C21.5371 8.24929 21.2466 7.59914 20.7253 7.12209C20.2084 6.64503 19.5034 6.37484 18.7685 6.37484C18.0336 6.37484 17.3329 6.64503 16.8117 7.12209C16.2947 7.59914 15.9999 8.24929 15.9999 8.92477C15.9999 9.60025 16.2904 10.2504 16.8117 10.7275C17.3287 11.2045 18.0336 11.4747 18.7685 11.4747Z" fill="#8DC63F"/>
<path d="M18.1572 35.5889V26.7021H13.0173V35.5889H18.1572Z" fill="#8DC63F"/>
<path opacity="0.5" d="M11.6494 35.5889V26.7021H6.50954L6.50954 35.5889H11.6494Z" fill="#8DC63F"/>
<path opacity="0.2" d="M37.6787 35.5889V26.7021H32.5388V35.5889H37.6787Z" fill="#8DC63F"/>
<path d="M24.6631 35.5889V26.7021H19.5232V35.5889H24.6631Z" fill="#8DC63F"/>
<path opacity="0.5" d="M31.1709 35.5889V26.7021H26.031V35.5889H31.1709Z" fill="#8DC63F"/>
<path opacity="0.2" d="M5.13965 35.5889L5.13965 26.7021H-0.000228882L-0.000228882 35.5889H5.13965Z" fill="#8DC63F"/>
</svg>
