<svg width="40" height="40" viewBox="0 0 40 40" fill="none" xmlns="http://www.w3.org/2000/svg">
<path d="M18.1631 28.834C18.3376 29.1363 18.5887 29.3873 18.891 29.5618C19.1932 29.7363 19.5361 29.8282 19.8852 29.8282C20.2343 29.8282 20.5772 29.7363 20.8795 29.5618C21.1817 29.3873 21.4328 29.1363 21.6073 28.834" stroke="#434242" stroke-width="1.98859" stroke-linecap="round" stroke-linejoin="round"/>
<path d="M11.1973 23.1923C11.0674 23.3347 10.9817 23.5117 10.9505 23.7019C10.9194 23.8921 10.9443 24.0872 11.022 24.2636C11.0997 24.4399 11.227 24.5899 11.3884 24.6952C11.5498 24.8005 11.7384 24.8566 11.9311 24.8568H27.8398C28.0324 24.8568 28.221 24.8009 28.3825 24.6958C28.544 24.5907 28.6715 24.4409 28.7494 24.2647C28.8274 24.0885 28.8524 23.8934 28.8216 23.7032C28.7907 23.513 28.7052 23.3358 28.5755 23.1933C27.2531 21.8301 25.8512 20.3815 25.8512 15.9081C25.8512 14.3259 25.2226 12.8085 24.1038 11.6897C22.985 10.5709 21.4676 9.94238 19.8854 9.94238C18.3032 9.94238 16.7858 10.5709 15.667 11.6897C14.5482 12.8085 13.9197 14.3259 13.9197 15.9081C13.9197 20.3815 12.5167 21.8301 11.1973 23.1923Z" stroke="#434242" stroke-width="1.98859" stroke-linecap="round" stroke-linejoin="round"/>
<path d="M27.8398 7.95471C27.8398 5.75818 29.6205 3.97754 31.817 3.97754C34.0135 3.97754 35.7942 5.75818 35.7942 7.95471C35.7942 10.1512 34.0135 11.9319 31.817 11.9319C29.6205 11.9319 27.8398 10.1512 27.8398 7.95471Z" fill="#8DC63F"/>
</svg>
