<svg width="24" height="24" viewBox="0 0 24 24" fill="none" xmlns="http://www.w3.org/2000/svg">
<path d="M12.1507 1.98828H11.7132C11.1858 1.98828 10.68 2.19779 10.307 2.57072C9.93412 2.94366 9.72461 3.44946 9.72461 3.97687V4.15584C9.72425 4.50456 9.63219 4.84706 9.45768 5.14898C9.28316 5.45089 9.03232 5.7016 8.73031 5.87597L8.30277 6.12454C8.00046 6.29907 7.65754 6.39096 7.30847 6.39096C6.9594 6.39096 6.61648 6.29907 6.31418 6.12454L6.16504 6.045C5.70872 5.78177 5.16661 5.71036 4.65769 5.84644C4.14878 5.98253 3.71465 6.31498 3.45062 6.77083L3.23187 7.14866C2.96865 7.60498 2.89724 8.14709 3.03332 8.65601C3.1694 9.16492 3.50186 9.59905 3.95771 9.86308L4.10685 9.96251C4.4074 10.136 4.65731 10.3852 4.83174 10.6852C5.00617 10.9852 5.09905 11.3257 5.10114 11.6727V12.1798C5.10254 12.5302 5.01131 12.8747 4.83671 13.1786C4.6621 13.4824 4.41032 13.7347 4.10685 13.9099L3.95771 13.9993C3.50186 14.2634 3.1694 14.6975 3.03332 15.2064C2.89724 15.7153 2.96865 16.2574 3.23187 16.7138L3.45062 17.0916C3.71465 17.5474 4.14878 17.8799 4.65769 18.016C5.16661 18.1521 5.70872 18.0807 6.16504 17.8174L6.31418 17.7379C6.61648 17.5633 6.9594 17.4715 7.30847 17.4715C7.65754 17.4715 8.00046 17.5633 8.30277 17.7379L8.73031 17.9865C9.03232 18.1608 9.28316 18.4115 9.45768 18.7134C9.63219 19.0154 9.72425 19.3579 9.72461 19.7066V19.8856C9.72461 20.413 9.93412 20.9188 10.307 21.2917C10.68 21.6646 11.1858 21.8741 11.7132 21.8741H12.1507C12.6781 21.8741 13.1839 21.6646 13.5568 21.2917C13.9298 20.9188 14.1393 20.413 14.1393 19.8856V19.7066C14.1396 19.3579 14.2317 19.0154 14.4062 18.7134C14.5807 18.4115 14.8316 18.1608 15.1336 17.9865L15.5611 17.7379C15.8634 17.5633 16.2063 17.4715 16.5554 17.4715C16.9045 17.4715 17.2474 17.5633 17.5497 17.7379L17.6988 17.8174C18.1552 18.0807 18.6973 18.1521 19.2062 18.016C19.7151 17.8799 20.1492 17.5474 20.4133 17.0916L20.632 16.7038C20.8952 16.2475 20.9666 15.7054 20.8306 15.1965C20.6945 14.6876 20.362 14.2534 19.9062 13.9894L19.757 13.9099C19.4536 13.7347 19.2018 13.4824 19.0272 13.1786C18.8526 12.8747 18.7613 12.5302 18.7627 12.1798V11.6826C18.7613 11.3322 18.8526 10.9877 19.0272 10.6839C19.2018 10.3801 19.4536 10.1278 19.757 9.95257L19.9062 9.86308C20.362 9.59905 20.6945 9.16492 20.8306 8.65601C20.9666 8.14709 20.8952 7.60498 20.632 7.14866L20.4133 6.77083C20.1492 6.31498 19.7151 5.98253 19.2062 5.84644C18.6973 5.71036 18.1552 5.78177 17.6988 6.045L17.5497 6.12454C17.2474 6.29907 16.9045 6.39096 16.5554 6.39096C16.2063 6.39096 15.8634 6.29907 15.5611 6.12454L15.1336 5.87597C14.8316 5.7016 14.5807 5.45089 14.4062 5.14898C14.2317 4.84706 14.1396 4.50456 14.1393 4.15584V3.97687C14.1393 3.44946 13.9298 2.94366 13.5568 2.57072C13.1839 2.19779 12.6781 1.98828 12.1507 1.98828Z" stroke="#434242" stroke-width="1.98859" stroke-linecap="round" stroke-linejoin="round"/>
<path d="M11.9311 14.915C13.5785 14.915 14.914 13.5795 14.914 11.9321C14.914 10.2847 13.5785 8.94922 11.9311 8.94922C10.2837 8.94922 8.94824 10.2847 8.94824 11.9321C8.94824 13.5795 10.2837 14.915 11.9311 14.915Z" stroke="#434242" stroke-width="1.98859" stroke-linecap="round" stroke-linejoin="round"/>
</svg>
