<svg width="20" height="20" viewBox="0 0 20 20" fill="none" xmlns="http://www.w3.org/2000/svg">
<path d="M17 1.66699H3.66667C2.74619 1.66699 2 2.41318 2 3.33366V6.66699C2 7.58747 2.74619 8.33366 3.66667 8.33366H17C17.9205 8.33366 18.6667 7.58747 18.6667 6.66699V3.33366C18.6667 2.41318 17.9205 1.66699 17 1.66699Z" stroke="white" stroke-width="1.66667" stroke-linecap="round" stroke-linejoin="round"/>
<path d="M17 11.667H3.66667C2.74619 11.667 2 12.4132 2 13.3337V16.667C2 17.5875 2.74619 18.3337 3.66667 18.3337H17C17.9205 18.3337 18.6667 17.5875 18.6667 16.667V13.3337C18.6667 12.4132 17.9205 11.667 17 11.667Z" stroke="white" stroke-width="1.66667" stroke-linecap="round" stroke-linejoin="round"/>
<path d="M5 5H5.00833" stroke="white" stroke-width="1.66667" stroke-linecap="round" stroke-linejoin="round"/>
<path d="M5 15H5.00833" stroke="white" stroke-width="1.66667" stroke-linecap="round" stroke-linejoin="round"/>
</svg>
