<svg width="103" height="34" viewBox="0 0 103 34" fill="none" xmlns="http://www.w3.org/2000/svg">
<path d="M12.1902 21.5021C12.1902 21.5021 5.90234 13.8491 5.90234 10.6053C5.90234 9.83389 6.06606 9.07081 6.37962 8.36044C6.69318 7.65008 7.15935 7.00076 7.74207 6.45689C8.32479 5.91302 9.0185 5.48014 9.78159 5.18601C10.5447 4.89187 11.3633 4.73926 12.1874 4.73926C13.0115 4.73926 13.8301 4.89187 14.5932 5.18601C15.3563 5.48014 16.05 5.91302 16.6327 6.45689C17.2154 7.00076 17.6788 7.64731 17.9952 8.36044C18.3115 9.07358 18.4724 9.83666 18.4724 10.6053C18.4724 13.8491 12.1846 21.5021 12.1846 21.5021H12.1902ZM12.1902 12.2813C12.6674 12.2813 13.1225 12.1037 13.461 11.7902C13.7968 11.4766 13.9883 11.0493 13.9883 10.6053C13.9883 10.1613 13.7996 9.73399 13.461 9.42043C13.1253 9.10688 12.6674 8.92929 12.1902 8.92929C11.7129 8.92929 11.2578 9.10688 10.9193 9.42043C10.5835 9.73399 10.3921 10.1613 10.3921 10.6053C10.3921 11.0493 10.5807 11.4766 10.9193 11.7902C11.255 12.1037 11.7129 12.2813 12.1902 12.2813Z" fill="#8DC63F"/>
<path d="M11.793 28.135V22.2939H8.45482V28.135H11.793Z" fill="#8DC63F"/>
<path opacity="0.5" d="M7.56641 28.135V22.2939H4.22826V28.135H7.56641Z" fill="#8DC63F"/>
<path opacity="0.2" d="M24.4707 28.135V22.2939H21.1326V28.135H24.4707Z" fill="#8DC63F"/>
<path d="M16.0195 28.135V22.2939H12.6814V28.135H16.0195Z" fill="#8DC63F"/>
<path opacity="0.5" d="M20.2441 28.135V22.2939H16.906V28.135H20.2441Z" fill="#8DC63F"/>
<path opacity="0.2" d="M3.33789 28.135L3.33789 22.2939H-0.000257969L-0.000257969 28.135H3.33789Z" fill="#8DC63F"/>
<path d="M29.3231 0.192383H30.433L34.1597 9.5048H34.2512L36.6848 3.48059L35.3612 0.19516H36.4711L40.1839 9.47705H40.2754L43.35 0.19516H44.4599L40.0784 11.0587H39.7427L36.8984 3.98283L34.0376 11.0587H33.7018L29.3203 0.19516L29.3231 0.192383ZM43.8023 10.8423L47.8952 0.192383H48.8386L52.9315 10.8423H51.8216L49.9347 5.85031H46.48L44.9122 10.8423H43.8023ZM48.0034 0.983218L46.5882 5.4868H49.7987L48.095 0.983218H48.0034ZM55.8646 10.8423V6.33869L52.0908 0.192383H53.2479L56.6415 5.76152H56.7331L59.4413 0.192383H60.5985L56.9606 6.1278V10.8451H55.8646V10.8423ZM39.307 28.5625L39.2154 29.4893C38.9324 29.6114 38.5855 29.7168 38.1804 29.8084C37.7753 29.9 37.3646 29.9666 36.9484 30.0054C36.5322 30.0554 36.1631 30.0803 35.8384 30.0803C35.0171 30.0803 34.2568 29.9444 33.5547 29.6697C32.8555 29.3866 32.2422 28.9954 31.7122 28.4987C31.1961 28.002 30.7882 27.4193 30.4941 26.7477C30.1999 26.0679 30.0529 25.3326 30.0529 24.5417C30.0529 23.7509 30.1999 23.0211 30.4941 22.3496C30.7882 21.6698 31.1933 21.0815 31.7122 20.5848C32.2395 20.0881 32.8527 19.7024 33.5547 19.4277C34.254 19.1446 35.0143 19.0003 35.8384 19.0003C36.1742 19.0003 36.5488 19.0253 36.965 19.0753C37.3813 19.1252 37.7864 19.1974 38.1832 19.2889C38.58 19.3694 38.913 19.4665 39.1877 19.5775L39.1128 20.4294H39.0212C38.6466 20.0853 38.1749 19.8217 37.606 19.6386C37.0372 19.4554 36.4489 19.3639 35.8412 19.3639C34.9283 19.3639 34.1208 19.5831 33.4215 20.0187C32.7306 20.446 32.1895 21.0482 31.7927 21.8307C31.407 22.6021 31.2155 23.5039 31.2155 24.539C31.2155 25.574 31.407 26.4925 31.7927 27.2639C32.1895 28.0353 32.7306 28.6374 33.4215 29.0758C34.1125 29.5032 34.9172 29.7141 35.8412 29.7141C36.5322 29.7141 37.1704 29.6031 37.7586 29.3783C38.358 29.1563 38.8436 28.8816 39.2182 28.5569H39.3098L39.307 28.5625ZM41.4353 29.8722V19.2223H42.4703V24.1532H48.8608V19.2223H49.8959V29.8722H48.8608V24.5168H42.4703V29.8722H41.4353ZM51.3638 29.8722L55.4567 19.2223H56.4001L60.493 29.8722H59.3831L57.4962 24.8803H54.0415L52.4737 29.8722H51.3638ZM55.5621 20.0132L54.1469 24.5168H57.3574L55.6537 20.0132H55.5621ZM62.0469 19.2223H64.0865C65.1631 19.2223 65.9928 19.4499 66.581 19.9077C67.1804 20.3545 67.4773 20.9844 67.4773 21.7946C67.4773 22.4245 67.2886 22.9462 66.914 23.3624C66.5478 23.7786 66.015 24.0561 65.3157 24.2004V24.292C65.9845 24.4252 66.5339 24.7387 66.9584 25.2354C67.3858 25.7321 67.7049 26.3454 67.9185 27.0779C68.11 27.7467 68.2987 28.2711 68.4818 28.6457C68.6733 29.012 68.8814 29.2756 69.1062 29.4366C69.3393 29.5975 69.614 29.7168 69.9275 29.7862V29.8778H69.3032C68.8564 29.8778 68.4874 29.7973 68.1932 29.6336C67.9102 29.4726 67.666 29.1979 67.4634 28.8122C67.2609 28.4265 67.0666 27.8938 66.8835 27.2139C66.5894 26.1678 66.1981 25.4297 65.7125 24.9913C65.2241 24.5556 64.6331 24.3364 63.9311 24.3364H63.8395V24.0617H63.9311C65.5627 24.0617 66.3813 23.3097 66.3813 21.8085C66.3813 20.3073 65.6154 19.5858 64.0837 19.5858H63.0792V29.8722H62.0442V19.2223H62.0469ZM75.9101 24.822V24.4557H79.7588V28.5958C79.2926 29.062 78.7183 29.4282 78.0384 29.6919C77.3697 29.9555 76.6177 30.0887 75.7852 30.0887C74.9528 30.0887 74.1481 29.9527 73.4266 29.678C72.7052 29.3949 72.078 29.0037 71.5397 28.507C71.0014 27.9992 70.5796 27.4109 70.2772 26.7422C69.983 26.0734 69.836 25.3437 69.836 24.5501C69.836 23.7564 69.983 23.0294 70.2772 22.3579C70.5824 21.6892 71.0014 21.1065 71.5397 20.607C72.078 20.0992 72.7052 19.7079 73.4266 19.436C74.1481 19.153 74.9334 19.0087 75.7852 19.0087C76.1515 19.0087 76.5456 19.0336 76.9729 19.0836C77.4085 19.1335 77.8248 19.2057 78.2216 19.2973C78.6184 19.3777 78.9513 19.4804 79.2261 19.6025L79.1511 20.4544H79.0596C78.6544 20.0992 78.1661 19.83 77.6 19.6469C77.0311 19.4637 76.429 19.3722 75.788 19.3722C74.8335 19.3722 73.9982 19.5914 73.2768 20.027C72.5581 20.4544 71.9948 21.0565 71.5869 21.839C71.1901 22.6104 70.9931 23.5123 70.9931 24.5473C70.9931 25.5823 71.1901 26.4897 71.5869 27.2722C71.992 28.0436 72.5553 28.6457 73.2768 29.0842C73.9982 29.5115 74.8335 29.7224 75.788 29.7224C76.3763 29.7224 76.9202 29.6419 77.4168 29.4782C77.9246 29.3173 78.3603 29.0814 78.7266 28.7789V24.822H75.9129H75.9101Z" fill="#8DC63F" stroke="#8DC63F" stroke-width="0.38449" stroke-miterlimit="10"/>
<path d="M87.3734 19.9312L87.1459 19.9007L84.4848 19.551C84.174 19.5094 83.9381 19.4845 83.7689 19.4706V23.6911C83.9326 23.6856 84.1768 23.6717 84.4986 23.6523L86.9932 23.4997L87.2069 23.4858V24.6152L86.9932 24.6013L84.4986 24.4487C84.1768 24.4292 83.9353 24.4154 83.7689 24.4098V29.0854C83.9437 29.0716 84.1879 29.0466 84.4986 29.005H84.5125H84.5264L92.2988 28.9578H92.5013V29.8041H92.2988L82.3842 29.7736H82.1816V18.7158H82.3842L87.1736 18.7463H87.3762V19.9257L87.3734 19.9312Z" fill="#8DC63F"/>
<path d="M102.274 31.6385V30.1983H99.4298V28.5834H102.274V27.1432H99.4298V25.3174H98.0507V33.4644H99.4298V31.6385H102.274ZM97.3293 32.9233V25.8585C95.6532 26.0111 93.3751 26.5577 92.7563 28.3725H90.653C90.4143 28.3725 90.1868 28.4696 90.0175 28.6361C89.8482 28.8054 89.7539 29.0329 89.7539 29.2715V29.5074C89.7539 29.7461 89.851 29.9736 90.0175 30.1429C90.1868 30.3121 90.4143 30.4065 90.653 30.4065H92.7563C93.3751 32.2212 95.6505 32.7679 97.3293 32.9205V32.9233Z" fill="#8DC63F"/>
</svg>
